PathFileType	4	(X/Y/Z)	./resultDataOpenSim/trcMotMarkerGrf/sub10/qtm-04-07.trc
DataRate	CameraRate	NumFrames	NumMarkers	Units	OrigDataRate	OrigDataStartFrame	OrigNumFrames
250.000000	250.000000	9	24	m	250.000000	211	562
Frame#	Time	L.Toe.Tip			R.Toe.Tip			L.Ankle.Lat			R.Ankle.Lat			L.Ankle.Med			R.Ankle.Med			L.Heel			R.Heel			L.Knee.Lat			R.Knee.Lat			L.Knee.Med			R.Knee.Med			L.Thigh.Upper			R.Thigh.Upper			L.ASIS			R.ASIS			V.Sacral			L.Acromium			R.Acromium			C7			L.Elbow			R.Elbow			L.Wrist.Lat			R.Wrist.Lat
		X1	Y1	Z1	X2	Y2	Z2	X3	Y3	Z3	X4	Y4	Z4	X5	Y5	Z5	X6	Y6	Z6	X7	Y7	Z7	X8	Y8	Z8	X9	Y9	Z9	X10	Y10	Z10	X11	Y11	Z11	X12	Y12	Z12	X13	Y13	Z13	X14	Y14	Z14	X15	Y15	Z15	X16	Y16	Z16	X17	Y17	Z17	X18	Y18	Z18	X19	Y19	Z19	X20	Y20	Z20	X21	Y21	Z21	X22	Y22	Z22	X23	Y23	Z23	X24	Y24	Z24

211	0.84	0.014045294	-0.033347295	-0.1082211	-0.73378496	0.036367297	0.017123617	-0.12180802	-0.0078860549	-0.15254597	-0.80439236	0.15768248	0.042159283	-0.12656436	0.012420878	-0.06928143	-0.75780653	0.14598808	-0.030170329	-0.18805657	-0.037043054	-0.11581402	-0.84566484	0.17268438	-0.01667458	-0.10674593	0.37922143	-0.16976881	-0.47651163	0.37825099	0.08575044	-0.11602915	0.35434896	-0.049862742	-0.43116034	0.35316162	-0.031166756	-0.20334515	0.75769586	-0.23027202	-0.35882074	0.75498129	0.1297059	-0.18309747	0.85861804	-0.14159725	-0.25394426	0.84030803	0.091033634	-0.40829697	0.86044548	-0.099855184	-0.3088221	1.3138084	-0.21079933	-0.33095088	1.3093266	0.11768108	-0.40445561	1.3402328	-0.057710368	-0.4369684	1.0016045	-0.26029532	-0.36246623	0.95037623	0.17033512	-0.39740561	0.77123552	-0.31559452	-0.14263031	0.85500609	0.24122628
212	0.844	0.01419279	-0.033392391	-0.10813527	-0.73254544	0.036091185	0.017203024	-0.12128328	-0.0076978915	-0.15230896	-0.79679851	0.16164037	0.042241193	-0.12638124	0.012552904	-0.069101999	-0.74957824	0.1477908	-0.029003138	-0.18793608	-0.036853256	-0.11570714	-0.83611054	0.17850801	-0.016914605	-0.10097808	0.37941944	-0.16894586	-0.46616518	0.37646213	0.087418664	-0.11213279	0.35447464	-0.049220698	-0.41964217	0.34953571	-0.029167913	-0.19767625	0.75829242	-0.23122028	-0.35099552	0.75283738	0.12953499	-0.17703154	0.85834396	-0.14223998	-0.24672755	0.83906524	0.089746416	-0.40182437	0.85973942	-0.099845853	-0.30200331	1.3129971	-0.21168122	-0.32456474	1.3088969	0.1169175	-0.39799226	1.3395512	-0.058686647	-0.42890904	1.0002576	-0.26081757	-0.35763829	0.94979512	0.16777288	-0.38914616	0.76982478	-0.31636233	-0.13913755	0.85380959	0.2418935
213	0.848	0.014331768	-0.033444242	-0.10809622	-0.73096441	0.036043705	0.017226942	-0.1207742	-0.0075353924	-0.15219545	-0.7888478	0.16551288	0.042466309	-0.12608684	0.012793315	-0.069054338	-0.74115461	0.14963399	-0.027849729	-0.18782106	-0.036636051	-0.11575766	-0.82610093	0.18417199	-0.017069245	-0.095219032	0.37975806	-0.16827306	-0.4557915	0.37465545	0.089285222	-0.10800278	0.35486097	-0.048662756	-0.4078236	0.34575323	-0.027020544	-0.19222909	0.75891977	-0.2322218	-0.34325242	0.75067685	0.12933773	-0.17106155	0.85821431	-0.14291236	-0.23962522	0.83783443	0.088440613	-0.3955733	0.85892284	-0.099551424	-0.29519189	1.3122555	-0.21250323	-0.3181342	1.3085155	0.11616543	-0.39151491	1.3389636	-0.059479713	-0.42086249	0.99898029	-0.26133314	-0.35290401	0.94929041	0.16534105	-0.38073471	0.76848047	-0.31698247	-0.13584246	0.85254942	0.24257238
214	0.852	0.014453869	-0.033503551	-0.10809357	-0.72883816	0.036398658	0.017184719	-0.12030959	-0.0074311735	-0.15219984	-0.78053614	0.16928869	0.04286627	-0.12577299	0.013058225	-0.069128807	-0.73261393	0.15162227	-0.026771382	-0.18772269	-0.036425553	-0.11594034	-0.81614702	0.18963355	-0.016850573	-0.089522014	0.38017255	-0.1677481	-0.4452986	0.37277792	0.091187616	-0.10371028	0.35543682	-0.048228209	-0.39578314	0.3418635	-0.024762651	-0.18695325	0.75951235	-0.23326775	-0.33562168	0.74850247	0.12912008	-0.16518735	0.85821464	-0.14362642	-0.23265493	0.83662282	0.087136141	-0.3898049	0.85811346	-0.099209511	-0.28838746	1.3115898	-0.21327238	-0.31168466	1.3081779	0.11542082	-0.3850321	1.3384648	-0.060145245	-0.41280297	0.99778348	-0.26191319	-0.34828551	0.94888082	0.16305931	-0.37218295	0.76720946	-0.31744248	-0.13277248	0.85121787	0.2432549
215	0.856	0.014554555	-0.033568979	-0.10811895	-0.72613173	0.037268545	0.017115559	-0.11990386	-0.0073865737	-0.15231201	-0.77188577	0.17301084	0.043407445	-0.12549036	0.013317078	-0.069308759	-0.72394369	0.15378233	-0.025791148	-0.18764356	-0.036225671	-0.1162426	-0.8063513	0.19498681	-0.01618036	-0.083948697	0.38059497	-0.1673764	-0.43461032	0.37079054	0.092992601	-0.099305847	0.35612521	-0.047940091	-0.38357417	0.33791187	-0.022461158	-0.18181893	0.76001562	-0.23432878	-0.32812836	0.74632852	0.1288988	-0.15940755	0.85832723	-0.14438997	-0.22583243	0.83543824	0.085854851	-0.38452479	0.85738751	-0.098905019	-0.28158025	1.3110091	-0.21399119	-0.30524686	1.3078811	0.11469176	-0.37853011	1.3380469	-0.06082229	-0.40473303	0.99667293	-0.26254853	-0.34377245	0.94857316	0.16091177	-0.3634941	0.7660223	-0.31774966	-0.12988222	0.84982779	0.24394317
216	0.86	0.01463424	-0.033637991	-0.10816552	-0.72296063	0.038658091	0.017086683	-0.11955377	-0.0073797147	-0.15251928	-0.76293031	0.17673828	0.044029863	-0.12525151	0.013572021	-0.069566046	-0.71507849	0.15607315	-0.024884385	-0.18757959	-0.036023317	-0.11665112	-0.79649104	0.20036612	-0.015196755	-0.078573964	0.38095537	-0.16716082	-0.42378649	0.36874214	0.094723485	-0.09479385	0.35685232	-0.04777635	-0.37121188	0.33394609	-0.020155008	-0.17679439	0.76039915	-0.23536963	-0.32078265	0.74418862	0.12868273	-0.15372521	0.85852932	-0.14520467	-0.21916507	0.83428604	0.084617347	-0.37935181	0.85672582	-0.098590106	-0.27476504	1.310518	-0.21465475	-0.29884728	1.307621	0.11398948	-0.37200718	1.3377016	-0.061645936	-0.39666253	0.99564914	-0.26320899	-0.33934318	0.94836273	0.158871	-0.35465545	0.76493008	-0.31793568	-0.12710858	0.84839958	0.24464455
217	0.864	0.014696819	-0.03370744	-0.1082271	-0.71946969	0.040473399	0.017154938	-0.11924376	-0.0073818664	-0.15280608	-0.75370956	0.18049541	0.044688955	-0.12503678	0.013825585	-0.069865829	-0.70595265	0.15843179	-0.024006828	-0.18752537	-0.035808652	-0.11712618	-0.78624635	0.20580847	-0.014144528	-0.073472831	0.38118949	-0.16709403	-0.41296749	0.36675216	0.096517222	-0.090153889	0.35755212	-0.047700375	-0.3586744	0.33004322	-0.017806689	-0.17183296	0.76065949	-0.23637089	-0.31358382	0.74212354	0.12847569	-0.14815091	0.85879343	-0.14606352	-0.21264791	0.83317503	0.083443612	-0.37378518	0.85607868	-0.09815082	-0.2679448	1.3101157	-0.21525523	-0.29250035	1.3073908	0.11332018	-0.36550786	1.3374234	-0.062558781	-0.38859657	0.99471327	-0.2638838	-0.33498249	0.94824052	0.15691897	-0.34563879	0.76393696	-0.31803909	-0.12443224	0.84694434	0.24536286
218	0.868	0.014746314	-0.033774587	-0.10829785	-0.71572233	0.042589474	0.017355154	-0.11895491	-0.0073785024	-0.15313937	-0.74424728	0.18427269	0.045362661	-0.12481561	0.01406724	-0.070174738	-0.69652602	0.16081237	-0.023131031	-0.187478	-0.035584964	-0.11760636	-0.77531102	0.21121499	-0.013277945	-0.068685133	0.38125468	-0.16716588	-0.40222155	0.36491903	0.098442591	-0.085386287	0.35816484	-0.04770564	-0.34595497	0.32632576	-0.015369197	-0.16690603	0.76080556	-0.23732164	-0.30652135	0.74016775	0.12828979	-0.14269381	0.8590934	-0.14695201	-0.20627093	0.83212395	0.082351075	-0.36770744	0.85546643	-0.097434939	-0.26112543	1.3097986	-0.2157865	-0.28620747	1.3071868	0.11268759	-0.35908018	1.3372103	-0.063357777	-0.38053158	0.99386718	-0.26457284	-0.33067974	0.94819725	0.15505028	-0.33642458	0.76304302	-0.31808321	-0.1218646	0.8454626	0.24609037
219	0.872	0.014785459	-0.033837849	-0.10837256	-0.71167734	0.044934775	0.017705635	-0.1186716	-0.0073789531	-0.15346036	-0.73451483	0.1880589	0.046047497	-0.12457296	0.01428271	-0.070466996	-0.68678356	0.16318424	-0.022253063	-0.18743649	-0.035361872	-0.11804177	-0.76353278	0.21644755	-0.012729087	-0.064187803	0.38114215	-0.16736894	-0.39148279	0.36326219	0.10039651	-0.080517132	0.35863914	-0.047800571	-0.33312756	0.32294302	-0.012903892	-0.16202772	0.7608461	-0.238194	-0.29956825	0.73835246	0.12814294	-0.13735409	0.85941055	-0.14785668	-0.20002925	0.83116371	0.081351361	-0.36158187	0.85497693	-0.096343919	-0.25431193	1.3095633	-0.21625023	-0.27997018	1.3070138	0.11209625	-0.35272408	1.3370659	-0.063935696	-0.37246163	0.99311299	-0.26525916	-0.32641792	0.94822033	0.15326132	-0.32702555	0.76225433	-0.31807282	-0.11940597	0.8439515	0.2468065
